# Blender v2.76 (sub 0) OBJ File: ''
# www.blender.org
mtllib fMid.mtl
o arm.001_arm.002
v -0.009791 0.026126 0.030079
v -0.007348 0.024332 0.028582
v -0.005997 0.031087 0.022916
v -0.008347 0.032906 0.024229
v -0.006741 0.034925 0.015968
v -0.009002 0.036729 0.016986
v -0.011183 0.015699 0.031742
v -0.013541 0.017458 0.033278
v -0.018867 0.009321 0.033313
v -0.016627 0.007736 0.031936
v -0.008628 0.036027 0.009294
v -0.010912 0.037595 0.009822
v -0.010440 0.035661 0.004877
v -0.012833 0.036312 0.004014
v -0.005254 0.022493 0.026770
v -0.003964 0.029249 0.021304
v -0.002871 0.020162 0.024394
v -0.001643 0.026698 0.019059
v -0.002520 0.030737 0.012410
v -0.004761 0.033173 0.014498
v -0.005083 0.032219 0.005481
v -0.008903 0.032001 0.000019
v -0.009966 0.034150 0.002588
v -0.006889 0.034388 0.007727
v -0.013607 0.030903 -0.002818
v -0.013794 0.033796 -0.000035
v -0.008953 0.013981 0.029988
v -0.014326 0.005991 0.030344
v -0.011513 0.004187 0.028406
v -0.006325 0.012071 0.027735
v -0.025217 -0.001913 0.024315
v -0.023517 -0.004464 0.021633
v -0.017576 -0.001687 0.026150
v -0.020076 0.000573 0.028048
v -0.022116 0.002488 0.029531
v -0.025714 0.000039 0.026616
v -0.028297 0.000274 0.025753
v -0.024379 0.003672 0.030430
v 0.013256 -0.036529 -0.007493
v 0.010234 -0.033296 -0.004913
v 0.006832 -0.033371 -0.010470
v 0.009838 -0.036241 -0.012684
v 0.005727 -0.030950 -0.016594
v 0.008627 -0.033477 -0.018461
v 0.009499 -0.034813 -0.019428
v 0.011129 -0.038152 -0.013881
v 0.014969 -0.038930 -0.009076
v 0.015209 -0.019884 -0.033071
v 0.012121 -0.024946 -0.029952
v 0.011447 -0.023714 -0.028592
v 0.014303 -0.018155 -0.031272
v 0.008889 -0.021260 -0.026892
v 0.011935 -0.015307 -0.029215
v 0.015539 -0.010334 -0.029378
v 0.017835 -0.013585 -0.031788
v 0.019050 -0.015804 -0.034001
v 0.019504 -0.007341 -0.027714
v 0.021904 -0.010822 -0.030363
v 0.023310 -0.005783 -0.024637
v 0.025845 -0.009366 -0.027372
v 0.027573 -0.011830 -0.029735
v 0.023402 -0.013228 -0.032752
v 0.010019 -0.030145 -0.025107
v 0.009368 -0.029088 -0.024082
v 0.006621 -0.026736 -0.022424
v 0.024036 -0.029456 -0.001683
v 0.021130 -0.025843 0.001234
v 0.015526 -0.030513 -0.000761
v 0.018456 -0.033986 -0.003555
v 0.020434 -0.036522 -0.005535
v 0.031135 -0.018541 -0.006066
v 0.028057 -0.014805 -0.003097
v 0.025477 -0.020424 0.000465
v 0.028490 -0.024108 -0.002499
v 0.031041 -0.009858 -0.017904
v 0.028342 -0.006075 -0.015021
v 0.028967 -0.009593 -0.008772
v 0.031884 -0.013376 -0.011701
v 0.026377 -0.005072 -0.020428
v 0.028977 -0.008762 -0.023222
v 0.030881 -0.011382 -0.025449
v 0.018509 0.000586 -0.020373
v 0.021779 0.001247 -0.015891
v 0.011622 0.009030 -0.014988
v 0.015376 0.009299 -0.010275
v 0.017835 0.007662 -0.004496
v 0.023872 0.000069 -0.010315
v 0.003047 -0.016034 -0.023927
v 0.006579 -0.009785 -0.026025
v -0.005390 -0.008350 -0.019239
v -0.001392 -0.001848 -0.021197
v 0.003050 0.003764 -0.020655
v 0.010563 -0.004444 -0.025741
v 0.004625 -0.028285 -0.000331
v -0.002737 -0.021991 0.005574
v -0.007252 -0.022068 -0.000555
v 0.000783 -0.028513 -0.006216
v -0.009045 -0.019071 -0.007585
v -0.000524 -0.026015 -0.012874
v 0.014640 -0.001129 -0.023719
v 0.007430 0.007330 -0.018470
v 0.024323 -0.003580 -0.004020
v 0.018326 0.003796 0.001756
v 0.017102 -0.001394 0.007266
v 0.023226 -0.008799 0.001604
v 0.000445 -0.021683 -0.019224
v -0.008220 -0.014306 -0.014350
v 0.020690 -0.014336 0.005136
v 0.014498 -0.006869 0.010824
v 0.010027 -0.012617 0.011739
v 0.016363 -0.019878 0.005901
v 0.010432 -0.025007 0.003946
v 0.003699 -0.018299 0.009883
v -0.017347 0.024412 -0.006209
v -0.012851 0.019971 -0.009542
v -0.017914 0.014136 -0.009660
v -0.022727 0.018264 -0.006392
v -0.022187 0.007150 -0.007877
v -0.027100 0.010937 -0.004860
v -0.030175 0.012456 -0.003825
v -0.025728 0.020166 -0.005021
v -0.019823 0.028061 -0.003925
v -0.014531 0.000191 -0.013226
v -0.010318 0.006932 -0.015120
v -0.005520 0.012663 -0.014741
v -0.021753 -0.009681 0.009675
v -0.024722 -0.005508 0.002688
v -0.017714 -0.011609 -0.001939
v -0.015260 -0.015291 0.005132
v -0.010136 -0.015650 0.011385
v -0.016316 -0.010490 0.016027
v 0.011232 0.015086 0.001150
v 0.008273 0.017308 -0.004781
v 0.003951 0.017663 -0.009662
v -0.002630 0.024704 -0.005329
v 0.001990 0.024037 -0.000301
v 0.005222 0.021591 0.005920
v -0.000726 0.016241 -0.012930
v -0.007677 0.023487 -0.008278
v -0.024736 0.000365 -0.003577
v -0.017295 -0.006207 -0.008547
v 0.010740 0.005841 0.012611
v 0.011983 0.011040 0.007273
v 0.006218 0.017457 0.012030
v 0.005006 0.012018 0.017257
v 0.007911 0.000184 0.016283
v 0.001920 0.005762 0.020973
v -0.003044 -0.000907 0.022273
v 0.003184 -0.005925 0.017453
v -0.003361 -0.011936 0.015742
v -0.009556 -0.007052 0.020512
v -0.011878 0.027953 -0.005150
v -0.006791 0.029229 -0.002348
v 0.000635 0.026901 0.009630
v 0.001639 0.022776 0.015987
v 0.000440 0.016782 0.021221
v -0.002391 0.028948 0.002959
v -0.002826 0.009573 0.024788
v -0.007905 0.002193 0.025850
v -0.029299 -0.001940 0.005617
v -0.032941 -0.000180 0.008662
v -0.032763 0.005554 0.000268
v -0.029559 0.003981 -0.000720
v -0.026075 -0.006100 0.012705
v -0.020677 -0.007046 0.019157
v -0.028598 -0.003910 0.015835
v -0.014220 -0.003941 0.023837
v -0.033688 -0.000749 0.017426
v -0.029559 -0.002019 0.020436
vt 0.000000 0.000000
vt 1.000000 0.000000
vt 1.000000 1.000000
vn 0.672500 0.392000 0.627700
vn 0.663500 0.402900 0.630500
vn 0.673900 0.674900 0.300700
vn 0.682100 0.670300 0.292100
vn 0.552300 0.058900 0.831500
vn 0.573000 0.053900 0.817800
vn 0.380600 -0.238400 0.893500
vn 0.389700 -0.251300 0.886000
vn 0.611400 0.790200 -0.042400
vn 0.557700 0.828700 -0.048500
vn 0.326500 0.921500 -0.210300
vn 0.478500 0.810700 -0.337400
vn 0.764400 0.317700 0.561000
vn 0.750000 0.323600 0.576900
vn 0.801300 0.280700 0.528300
vn 0.806400 0.271200 0.525500
vn 0.805800 0.547300 0.226200
vn 0.809900 0.544200 0.218900
vn 0.741300 0.618000 0.262000
vn 0.752900 0.604400 0.260300
vn 0.533000 0.744200 -0.402600
vn 0.514600 0.785200 -0.344500
vn 0.646200 0.691700 -0.322500
vn 0.477800 0.816600 -0.323900
vn 0.638900 0.767400 -0.054000
vn 0.650700 0.756200 -0.068800
vn 0.687800 0.718900 -0.100600
vn 0.712200 0.694900 -0.099000
vn 0.171500 0.789300 -0.589600
vn 0.386500 0.652300 -0.652100
vn 0.382400 0.805600 -0.452600
vn 0.307900 0.773600 -0.553800
vn 0.649300 -0.010000 0.760500
vn 0.628100 0.021100 0.777800
vn 0.409300 -0.258500 0.875000
vn 0.458000 -0.270200 0.846900
vn 0.451600 -0.223700 0.863700
vn 0.490400 -0.293200 0.820700
vn 0.702900 -0.006400 0.711200
vn 0.652200 0.003200 0.758100
vn -0.130900 -0.758500 0.638400
vn -0.140900 -0.723500 0.675800
vn 0.217100 -0.537100 0.815100
vn 0.160800 -0.524600 0.836000
vn 0.158300 -0.543400 0.824400
vn 0.140100 -0.508600 0.849500
vn -0.004300 -0.763000 0.646400
vn -0.160200 -0.705400 0.690500
vn -0.314900 -0.498900 0.807500
vn -0.131600 -0.746100 0.652700
vn 0.139700 -0.529500 0.836700
vn 0.073900 -0.509600 0.857200
vn -0.536900 -0.772500 0.339100
vn -0.530300 -0.790900 0.305300
vn -0.702300 -0.696200 -0.148500
vn -0.740200 -0.653700 -0.157600
vn -0.855000 -0.515300 -0.058900
vn -0.847300 -0.526000 -0.074100
vn -0.615700 -0.690100 0.380300
vn -0.636800 -0.669600 0.382200
vn -0.819000 0.160100 -0.551000
vn -0.816800 0.151300 -0.556700
vn -0.571500 -0.027600 -0.820100
vn -0.666900 -0.016500 -0.744900
vn -0.453700 0.301300 -0.838700
vn -0.447300 0.249000 -0.859000
vn -0.585400 0.388900 -0.711400
vn -0.610700 0.394400 -0.686600
vn -0.075400 0.558900 -0.825800
vn -0.093300 0.561400 -0.822300
vn 0.258100 0.694900 -0.671200
vn 0.257200 0.691200 -0.675300
vn 0.205200 0.748600 -0.630500
vn 0.200800 0.750400 -0.629800
vn -0.170100 0.647600 -0.742800
vn -0.170900 0.638600 -0.750300
vn -0.905500 -0.028700 -0.423300
vn -0.872300 -0.068600 -0.484200
vn -0.880200 -0.323800 -0.346900
vn -0.913100 -0.254000 -0.318800
vn -0.732200 -0.493700 -0.469200
vn -0.719100 -0.498600 -0.484100
vn -0.694800 -0.259500 -0.670800
vn -0.670800 -0.307000 -0.675200
vn 0.156700 -0.541000 0.826300
vn 0.156400 -0.535600 0.829800
vn -0.168300 -0.706100 0.687800
vn -0.177300 -0.703400 0.688400
vn -0.189400 -0.692100 0.696500
vn 0.741500 0.081700 0.665900
vn 0.743300 0.072900 0.665000
vn 0.489100 -0.274900 0.827800
vn 0.482300 -0.274800 0.831800
vn 0.860700 0.475600 0.181700
vn 0.840800 0.512000 0.176100
vn 0.832400 0.335100 0.441300
vn 0.847000 0.331000 0.416000
vn 0.496700 0.720600 -0.483700
vn 0.500900 0.718400 -0.482600
vn 0.746600 0.647900 -0.151200
vn 0.747400 0.645500 -0.157000
vn 0.735600 0.660800 -0.149300
vn 0.476600 0.744200 -0.468000
vn 0.506900 0.709700 -0.489300
vn 0.510600 0.714700 -0.477900
vn 0.523300 0.718700 -0.457800
vn 0.499800 0.726400 -0.471700
vn 0.730200 0.672600 -0.120200
vn 0.729100 0.671700 -0.131800
vn 0.742100 0.653600 -0.148500
vn 0.748100 0.647800 -0.144000
vn -0.505100 -0.077000 -0.859600
vn -0.511300 0.000800 -0.859400
vn -0.469500 0.022900 -0.882600
vn -0.515200 0.003700 -0.857100
vn -0.278700 0.308400 -0.909500
vn -0.291400 0.266200 -0.918800
vn -0.371600 0.239900 -0.896900
vn -0.282300 0.259700 -0.923500
vn -0.441800 -0.831900 0.335900
vn -0.443800 -0.836200 0.322100
vn -0.675400 -0.724700 -0.136700
vn -0.677100 -0.722800 -0.138200
vn -0.669900 -0.723900 -0.165300
vn -0.677400 -0.722500 -0.138100
vn -0.482600 -0.820500 0.306500
vn -0.444400 -0.835800 0.322500
vn -0.024400 0.510200 -0.859700
vn -0.013900 0.533100 -0.845900
vn -0.002700 0.524900 -0.851200
vn -0.004300 0.524600 -0.851300
vn 0.292400 0.672200 -0.680200
vn 0.291600 0.671400 -0.681300
vn 0.280300 0.670900 -0.686500
vn 0.293800 0.669100 -0.682700
vn 0.856700 0.481400 0.185300
vn 0.848300 0.482300 0.218800
vn 0.840600 0.487800 0.235600
vn 0.835400 0.499400 0.229600
vn 0.820700 0.313500 0.477600
vn 0.830800 0.317700 0.456900
vn 0.836400 0.330300 0.437500
vn 0.844000 0.301000 0.443900
vn -0.701200 -0.522400 -0.485200
vn -0.691300 -0.543400 -0.476200
vn -0.714800 -0.527700 -0.458900
vn -0.710600 -0.526000 -0.467300
vn -0.646700 -0.276300 -0.711000
vn -0.645300 -0.291200 -0.706300
vn -0.636800 -0.311700 -0.705300
vn -0.624600 -0.309300 -0.717100
vn 0.744000 0.079000 0.663500
vn 0.746300 0.079700 0.660900
vn 0.732600 0.090000 0.674700
vn 0.732800 0.094300 0.673900
vn 0.488500 -0.246700 0.837000
vn 0.472100 -0.252000 0.844800
vn 0.481600 -0.267900 0.834400
vn 0.482800 -0.261600 0.835700
vn 0.148000 -0.533400 0.832800
vn 0.187900 -0.532000 0.825600
vn 0.202300 -0.500300 0.841900
vn 0.191900 -0.535400 0.822500
vn -0.054700 -0.716400 0.695500
vn -0.104400 -0.715800 0.690400
vn -0.125800 -0.742500 0.658000
vn -0.116600 -0.705500 0.699100
vn -0.343500 0.316000 -0.884400
vn -0.331700 0.316700 -0.888600
vn -0.481400 0.071500 -0.873600
vn -0.490600 0.112100 -0.864100
vn -0.306000 0.028900 -0.951600
vn -0.392800 0.042400 -0.918600
vn -0.302800 0.349500 -0.886700
vn -0.262100 0.257000 -0.930200
vn -0.511500 0.056300 -0.857500
vn -0.508400 0.076800 -0.857700
vn -0.511000 0.094500 -0.854400
vn -0.524000 0.089500 -0.847000
vn -0.330100 0.304500 -0.893500
vn -0.324200 0.330100 -0.886500
vn -0.292000 0.318200 -0.901900
vn -0.304000 0.313600 -0.899600
vn -0.697200 -0.705800 -0.125300
vn -0.697400 -0.705600 -0.125400
vn -0.693000 -0.709900 -0.125900
vn -0.692500 -0.709800 -0.129300
vn -0.445000 -0.829200 0.338200
vn -0.461500 -0.823100 0.330900
vn -0.470600 -0.830800 0.297000
vn -0.469000 -0.816200 0.337500
vn 0.704200 0.702800 -0.100600
vn 0.711800 0.696000 -0.094400
vn 0.511800 0.732100 -0.449500
vn 0.524300 0.746300 -0.410000
vn 0.537300 0.745200 -0.394900
vn 0.518500 0.753400 -0.404400
vn 0.700000 0.709000 -0.084900
vn 0.700000 0.709200 -0.083500
vn 0.289400 0.675500 -0.678200
vn 0.273100 0.675700 -0.684800
vn -0.019900 0.540000 -0.841400
vn -0.044400 0.497900 -0.866100
vn -0.123100 0.490700 -0.862600
vn -0.050900 0.504500 -0.861900
vn 0.250000 0.666100 -0.702700
vn 0.263800 0.687500 -0.676600
vn -0.675400 -0.196700 -0.710800
vn -0.671300 -0.226200 -0.705900
vn -0.681300 -0.243100 -0.690500
vn -0.663200 -0.233600 -0.711100
vn -0.732700 -0.511100 -0.449400
vn -0.737000 -0.499700 -0.455200
vn -0.735900 -0.494800 -0.462200
vn -0.740700 -0.496300 -0.452700
vn 0.800200 0.337500 0.495700
vn 0.803400 0.322100 0.500800
vn 0.811200 0.523700 0.260100
vn 0.814500 0.525000 0.247000
vn 0.795100 0.554500 0.245600
vn 0.805600 0.534900 0.254700
vn 0.783200 0.331200 0.526200
vn 0.792700 0.334100 0.510000
vn 0.711200 0.112700 0.693900
vn 0.700300 0.107900 0.705700
vn 0.684700 0.091700 0.723000
vn 0.681900 0.126600 0.720400
vn 0.492700 -0.201700 0.846500
vn 0.477300 -0.205700 0.854300
vn 0.476500 -0.235900 0.846900
vn 0.481300 -0.209400 0.851200
vn 0.206900 -0.504300 0.838400
vn 0.240900 -0.499200 0.832300
vn 0.243900 -0.497100 0.832700
vn 0.243700 -0.501600 0.830100
vn -0.087800 -0.722300 0.686000
vn -0.043600 -0.725800 0.686500
vn -0.060300 -0.711700 0.699900
vn -0.060200 -0.711500 0.700100
vn -0.134300 0.504300 -0.853000
vn -0.140200 0.476200 -0.868100
vn -0.071500 0.493900 -0.866600
vn -0.189400 0.538200 -0.821300
vn 0.223100 0.725700 -0.650800
vn 0.215400 0.680100 -0.700700
vn 0.241500 0.678900 -0.693400
vn 0.211300 0.686200 -0.696000
vn 0.824400 0.525500 0.210500
vn 0.824600 0.525100 0.210500
vn 0.798400 0.283500 0.531100
vn 0.813300 0.281800 0.509100
vn 0.790000 0.324100 0.520400
vn 0.798200 0.297600 0.523700
vn 0.810400 0.538000 0.231900
vn 0.814200 0.537300 0.220000
vn 0.721700 0.681500 -0.121200
vn 0.720600 0.683400 -0.117200
vn 0.716800 0.689900 -0.101200
vn 0.706200 0.700100 -0.105500
vn 0.534300 0.749200 -0.391500
vn 0.533600 0.743500 -0.403000
vn 0.530700 0.746700 -0.401000
vn 0.531200 0.746300 -0.400900
vn 0.692900 0.001900 0.721000
vn 0.669000 0.063400 0.740600
vn 0.470700 -0.237400 0.849700
vn 0.519600 -0.239600 0.820100
vn 0.493400 -0.202400 0.845900
vn 0.496900 -0.221200 0.839100
vn 0.698700 0.077800 0.711200
vn 0.659200 0.071700 0.748500
vn -0.659300 -0.614200 -0.433600
vn -0.495900 -0.644600 -0.581900
vn -0.443100 -0.328500 -0.834100
vn -0.427400 -0.346000 -0.835200
vn -0.632200 -0.231100 -0.739500
vn -0.617600 -0.229400 -0.752300
vn -0.709400 -0.515000 -0.481200
vn -0.690300 -0.542600 -0.478600
vn -0.666500 -0.729700 -0.152600
vn -0.680400 -0.723700 -0.115300
vn -0.459100 -0.841100 0.285800
vn -0.485300 -0.826700 0.284800
vn -0.463300 -0.823500 0.327300
vn -0.444000 -0.861800 0.245100
vn -0.516200 -0.846900 -0.127900
vn -0.711600 -0.697400 -0.085600
vn 0.268300 -0.517200 0.812800
vn 0.240600 -0.517200 0.821400
vn 0.249400 -0.560700 0.789500
vn 0.229900 -0.508900 0.829500
vn -0.131700 -0.757800 0.639100
vn -0.084900 -0.772300 0.629500
vn -0.083500 -0.726100 0.682500
vn -0.076200 -0.779200 0.622100
vn -0.547400 -0.830800 -0.100600
vn -0.450500 -0.854900 0.257300
vn -0.525100 -0.757600 0.387800
vn -0.263000 -0.910400 0.319300
vn -0.266300 -0.762700 0.589400
vn -0.373800 -0.816200 0.440700
usemtl None
s off
f 1/1/1 2/2/1 3/3/1
f 1/1/2 3/2/2 4/3/2
f 3/1/3 5/2/3 6/3/3
f 3/1/4 6/2/4 4/3/4
f 7/1/5 2/2/5 1/3/5
f 7/1/6 1/2/6 8/3/6
f 9/1/7 10/2/7 7/3/7
f 9/1/8 7/2/8 8/3/8
f 6/1/9 5/2/9 11/3/9
f 6/1/10 11/2/10 12/3/10
f 11/1/11 13/2/11 14/3/11
f 11/1/12 14/2/12 12/3/12
f 3/1/13 2/2/13 15/3/13
f 3/1/14 15/2/14 16/3/14
f 15/1/15 17/2/15 18/3/15
f 15/1/16 18/2/16 16/3/16
f 18/1/17 19/2/17 20/3/17
f 18/1/18 20/2/18 16/3/18
f 20/1/19 5/2/19 3/3/19
f 20/1/20 3/2/20 16/3/20
f 21/1/21 22/2/21 23/3/21
f 21/1/22 23/2/22 24/3/22
f 23/1/23 13/2/23 11/3/23
f 23/1/24 11/2/24 24/3/24
f 11/1/25 5/2/25 20/3/25
f 11/1/26 20/2/26 24/3/26
f 20/1/27 19/2/27 21/3/27
f 20/1/28 21/2/28 24/3/28
f 23/1/29 22/2/29 25/3/29
f 23/1/30 25/2/30 26/3/30
f 14/1/31 13/2/31 23/3/31
f 14/1/32 23/2/32 26/3/32
f 15/1/33 2/2/33 7/3/33
f 15/1/34 7/2/34 27/3/34
f 7/1/35 10/2/35 28/3/35
f 7/1/36 28/2/36 27/3/36
f 28/1/37 29/2/37 30/3/37
f 28/1/38 30/2/38 27/3/38
f 30/1/39 17/2/39 15/3/39
f 30/1/40 15/2/40 27/3/40
f 31/1/41 32/2/41 33/3/41
f 31/1/42 33/2/42 34/3/42
f 33/1/43 29/2/43 28/3/43
f 33/1/44 28/2/44 34/3/44
f 28/1/45 10/2/45 35/3/45
f 28/1/46 35/2/46 34/3/46
f 35/1/47 36/2/47 31/3/47
f 35/1/48 31/2/48 34/3/48
f 37/1/49 36/2/49 35/3/49
f 37/1/50 35/2/50 38/3/50
f 35/1/51 10/2/51 9/3/51
f 35/1/52 9/2/52 38/3/52
f 39/1/53 40/2/53 41/3/53
f 39/1/54 41/2/54 42/3/54
f 41/1/55 43/2/55 44/3/55
f 41/1/56 44/2/56 42/3/56
f 44/1/57 45/2/57 46/3/57
f 44/1/58 46/2/58 42/3/58
f 46/1/59 47/2/59 39/3/59
f 46/1/60 39/2/60 42/3/60
f 48/1/61 49/2/61 50/3/61
f 48/1/62 50/2/62 51/3/62
f 50/1/63 52/2/63 53/3/63
f 50/1/64 53/2/64 51/3/64
f 53/1/65 54/2/65 55/3/65
f 53/1/66 55/2/66 51/3/66
f 55/1/67 56/2/67 48/3/67
f 55/1/68 48/2/68 51/3/68
f 55/1/69 54/2/69 57/3/69
f 55/1/70 57/2/70 58/3/70
f 57/1/71 59/2/71 60/3/71
f 57/1/72 60/2/72 58/3/72
f 60/1/73 61/2/73 62/3/73
f 60/1/74 62/2/74 58/3/74
f 62/1/75 56/2/75 55/3/75
f 62/1/76 55/2/76 58/3/76
f 50/1/77 49/2/77 63/3/77
f 50/1/78 63/2/78 64/3/78
f 63/1/79 45/2/79 44/3/79
f 63/1/80 44/2/80 64/3/80
f 44/1/81 43/2/81 65/3/81
f 44/1/82 65/2/82 64/3/82
f 65/1/83 52/2/83 50/3/83
f 65/1/84 50/2/84 64/3/84
f 66/1/85 67/2/85 68/3/85
f 66/1/86 68/2/86 69/3/86
f 68/1/87 40/2/87 39/3/87
f 68/1/88 39/2/88 69/3/88
f 39/1/89 70/2/89 69/3/89
f 71/1/90 72/2/90 73/3/90
f 71/1/91 73/2/91 74/3/91
f 73/1/92 67/2/92 66/3/92
f 73/1/93 66/2/93 74/3/93
f 75/1/94 76/2/94 77/3/94
f 75/1/95 77/2/95 78/3/95
f 77/1/96 72/2/96 71/3/96
f 77/1/97 71/2/97 78/3/97
f 60/1/98 59/2/98 79/3/98
f 60/1/99 79/2/99 80/3/99
f 79/1/100 76/2/100 75/3/100
f 79/1/101 75/2/101 80/3/101
f 75/1/102 81/2/102 80/3/102
f 81/1/103 60/2/103 80/3/103
f 79/1/104 59/2/104 82/3/104
f 79/1/105 82/2/105 83/3/105
f 82/1/106 84/2/106 85/3/106
f 82/1/107 85/2/107 83/3/107
f 85/1/108 86/2/108 87/3/108
f 85/1/109 87/2/109 83/3/109
f 87/1/110 76/2/110 79/3/110
f 87/1/111 79/2/111 83/3/111
f 53/1/112 52/2/112 88/3/112
f 53/1/113 88/2/113 89/3/113
f 88/1/114 90/2/114 91/3/114
f 88/1/115 91/2/115 89/3/115
f 91/1/116 92/2/116 93/3/116
f 91/1/117 93/2/117 89/3/117
f 93/1/118 54/2/118 53/3/118
f 93/1/119 53/2/119 89/3/119
f 94/1/120 95/2/120 96/3/120
f 94/1/121 96/2/121 97/3/121
f 96/1/122 98/2/122 99/3/122
f 96/1/123 99/2/123 97/3/123
f 99/1/124 43/2/124 41/3/124
f 99/1/125 41/2/125 97/3/125
f 41/1/126 40/2/126 94/3/126
f 41/1/127 94/2/127 97/3/127
f 57/1/128 54/2/128 93/3/128
f 57/1/129 93/2/129 100/3/129
f 93/1/130 92/2/130 101/3/130
f 93/1/131 101/2/131 100/3/131
f 101/1/132 84/2/132 82/3/132
f 101/1/133 82/2/133 100/3/133
f 82/1/134 59/2/134 57/3/134
f 82/1/135 57/2/135 100/3/135
f 77/1/136 76/2/136 87/3/136
f 77/1/137 87/2/137 102/3/137
f 87/1/138 86/2/138 103/3/138
f 87/1/139 103/2/139 102/3/139
f 103/1/140 104/2/140 105/3/140
f 103/1/141 105/2/141 102/3/141
f 105/1/142 72/2/142 77/3/142
f 105/1/143 77/2/143 102/3/143
f 65/1/144 43/2/144 99/3/144
f 65/1/145 99/2/145 106/3/145
f 99/1/146 98/2/146 107/3/146
f 99/1/147 107/2/147 106/3/147
f 107/1/148 90/2/148 88/3/148
f 107/1/149 88/2/149 106/3/149
f 88/1/150 52/2/150 65/3/150
f 88/1/151 65/2/151 106/3/151
f 73/1/152 72/2/152 105/3/152
f 73/1/153 105/2/153 108/3/153
f 105/1/154 104/2/154 109/3/154
f 105/1/155 109/2/155 108/3/155
f 109/1/156 110/2/156 111/3/156
f 109/1/157 111/2/157 108/3/157
f 111/1/158 67/2/158 73/3/158
f 111/1/159 73/2/159 108/3/159
f 68/1/160 67/2/160 111/3/160
f 68/1/161 111/2/161 112/3/161
f 111/1/162 110/2/162 113/3/162
f 111/1/163 113/2/163 112/3/163
f 113/1/164 95/2/164 94/3/164
f 113/1/165 94/2/165 112/3/165
f 94/1/166 40/2/166 68/3/166
f 94/1/167 68/2/167 112/3/167
f 114/1/168 115/2/168 116/3/168
f 114/1/169 116/2/169 117/3/169
f 116/1/170 118/2/170 119/3/170
f 116/1/171 119/2/171 117/3/171
f 119/1/172 120/2/172 121/3/172
f 119/1/173 121/2/173 117/3/173
f 121/1/174 122/2/174 114/3/174
f 121/1/175 114/2/175 117/3/175
f 91/1/176 90/2/176 123/3/176
f 91/1/177 123/2/177 124/3/177
f 123/1/178 118/2/178 116/3/178
f 123/1/179 116/2/179 124/3/179
f 116/1/180 115/2/180 125/3/180
f 116/1/181 125/2/181 124/3/181
f 125/1/182 92/2/182 91/3/182
f 125/1/183 91/2/183 124/3/183
f 126/1/184 127/2/184 128/3/184
f 126/1/185 128/2/185 129/3/185
f 128/1/186 98/2/186 96/3/186
f 128/1/187 96/2/187 129/3/187
f 96/1/188 95/2/188 130/3/188
f 96/1/189 130/2/189 129/3/189
f 130/1/190 131/2/190 126/3/190
f 130/1/191 126/2/191 129/3/191
f 132/1/192 86/2/192 85/3/192
f 132/1/193 85/2/193 133/3/193
f 85/1/194 84/2/194 134/3/194
f 85/1/195 134/2/195 133/3/195
f 134/1/196 135/2/196 136/3/196
f 134/1/197 136/2/197 133/3/197
f 136/1/198 137/2/198 132/3/198
f 136/1/199 132/2/199 133/3/199
f 134/1/200 84/2/200 101/3/200
f 134/1/201 101/2/201 138/3/201
f 101/1/202 92/2/202 125/3/202
f 101/1/203 125/2/203 138/3/203
f 125/1/204 115/2/204 139/3/204
f 125/1/205 139/2/205 138/3/205
f 139/1/206 135/2/206 134/3/206
f 139/1/207 134/2/207 138/3/207
f 140/1/208 118/2/208 123/3/208
f 140/1/209 123/2/209 141/3/209
f 123/1/210 90/2/210 107/3/210
f 123/1/211 107/2/211 141/3/211
f 107/1/212 98/2/212 128/3/212
f 107/1/213 128/2/213 141/3/213
f 128/1/214 127/2/214 140/3/214
f 128/1/215 140/2/215 141/3/215
f 142/1/216 104/2/216 103/3/216
f 142/1/217 103/2/217 143/3/217
f 103/1/218 86/2/218 132/3/218
f 103/1/219 132/2/219 143/3/219
f 132/1/220 137/2/220 144/3/220
f 132/1/221 144/2/221 143/3/221
f 144/1/222 145/2/222 142/3/222
f 144/1/223 142/2/223 143/3/223
f 109/1/224 104/2/224 142/3/224
f 109/1/225 142/2/225 146/3/225
f 142/1/226 145/2/226 147/3/226
f 142/1/227 147/2/227 146/3/227
f 147/1/228 148/2/228 149/3/228
f 147/1/229 149/2/229 146/3/229
f 149/1/230 110/2/230 109/3/230
f 149/1/231 109/2/231 146/3/231
f 113/1/232 110/2/232 149/3/232
f 113/1/233 149/2/233 150/3/233
f 149/1/234 148/2/234 151/3/234
f 149/1/235 151/2/235 150/3/235
f 151/1/236 131/2/236 130/3/236
f 151/1/237 130/2/237 150/3/237
f 130/1/238 95/2/238 113/3/238
f 130/1/239 113/2/239 150/3/239
f 139/1/240 115/2/240 114/3/240
f 139/1/241 114/2/241 152/3/241
f 114/1/242 122/2/242 25/3/242
f 114/1/243 25/2/243 152/3/243
f 25/1/244 22/2/244 153/3/244
f 25/1/245 153/2/245 152/3/245
f 153/1/246 135/2/246 139/3/246
f 153/1/247 139/2/247 152/3/247
f 154/1/248 19/2/248 18/3/248
f 154/1/249 18/2/249 155/3/249
f 18/1/250 17/2/250 156/3/250
f 18/1/251 156/2/251 155/3/251
f 156/1/252 145/2/252 144/3/252
f 156/1/253 144/2/253 155/3/253
f 144/1/254 137/2/254 154/3/254
f 144/1/255 154/2/255 155/3/255
f 21/1/256 19/2/256 154/3/256
f 21/1/257 154/2/257 157/3/257
f 154/1/258 137/2/258 136/3/258
f 154/1/259 136/2/259 157/3/259
f 136/1/260 135/2/260 153/3/260
f 136/1/261 153/2/261 157/3/261
f 153/1/262 22/2/262 21/3/262
f 153/1/263 21/2/263 157/3/263
f 156/1/264 17/2/264 30/3/264
f 156/1/265 30/2/265 158/3/265
f 30/1/266 29/2/266 159/3/266
f 30/1/267 159/2/267 158/3/267
f 159/1/268 148/2/268 147/3/268
f 159/1/269 147/2/269 158/3/269
f 147/1/270 145/2/270 156/3/270
f 147/1/271 156/2/271 158/3/271
f 160/1/272 161/2/272 162/3/272
f 160/1/273 162/2/273 163/3/273
f 162/1/274 120/2/274 119/3/274
f 162/1/275 119/2/275 163/3/275
f 119/1/276 118/2/276 140/3/276
f 119/1/277 140/2/277 163/3/277
f 140/1/278 127/2/278 160/3/278
f 140/1/279 160/2/279 163/3/279
f 160/1/280 127/2/280 126/3/280
f 160/1/281 126/2/281 164/3/281
f 126/1/282 131/2/282 165/3/282
f 126/1/283 165/2/283 164/3/283
f 165/1/284 32/2/284 166/3/284
f 165/1/285 166/2/285 164/3/285
f 166/1/286 161/2/286 160/3/286
f 166/1/287 160/2/287 164/3/287
f 151/1/288 148/2/288 159/3/288
f 151/1/289 159/2/289 167/3/289
f 159/1/290 29/2/290 33/3/290
f 159/1/291 33/2/291 167/3/291
f 33/1/292 32/2/292 165/3/292
f 33/1/293 165/2/293 167/3/293
f 165/1/294 131/2/294 151/3/294
f 165/1/295 151/2/295 167/3/295
f 168/1/296 161/2/296 166/3/296
f 168/1/297 166/2/297 169/3/297
f 166/1/298 32/2/298 31/3/298
f 166/1/299 31/2/299 169/3/299
f 31/1/300 36/2/300 37/3/300
f 31/1/301 37/2/301 169/3/301
